<svg xmlns="http://www.w3.org/2000/svg" width="385" height="377" fill="none"><g clip-path="url(#a)"><path fill="#009E9E" d="M381.385 26.666c-.32.321-.738.482-1.155.482-.289 0-.577-.065-.834-.225a1.595 1.595 0 0 1-.642-1.957l.225-.546c-1.284-1.09-2.567-1.99-3.915-2.663-2.471-1.284-5.295-2.022-8.6-2.279-.45-.032-.931-.064-1.38-.064a20.34 20.34 0 0 0-6.707 1.155 19.697 19.697 0 0 1-3.337.867c-.867.128-1.797.289-2.728.289a7.918 7.918 0 0 1-1.797-.193 28.99 28.99 0 0 1-2.374-.706c-1.059-.353-2.054-.674-3.113-.867a16.783 16.783 0 0 0-3.241-.32c-.899 0-1.733.064-2.567.256-.193.032-.418.065-.642.097l-.802.128c-1.444.257-3.338.738-4.974 1.894l-.482.32c-1.123.77-2.406 1.669-3.562 2.632-2.438 1.957-4.524 4.492-6.321 7.669-.642 1.123-1.22 2.278-1.797 3.434l-.674 1.347s-.096.257-.161.546c-.128.77-.866 1.701-1.636 1.701h-.546c-.577-.064-1.155-.096-1.668-.225h-.257l-1.316.129c-.962.096-1.893.192-2.824.352-2.118.321-4.332.802-6.931 1.54a16.35 16.35 0 0 0-2.856 1.124c-.225.096-.449.16-.706.16-.257 0-1.54-.93-1.604-1.443l-.065-.707c-.064-.834-.128-1.637-.256-2.439-.289-2.246-.61-3.914-1.509-5.808-.513-1.09-.962-2.086-1.476-3.016-1.476-2.696-3.112-4.845-5.006-6.61-.577-.546-1.251-1.027-2.021-1.605l-.418-.321a14.262 14.262 0 0 0-1.668-1.06c-1.476-.834-3.113-1.507-4.782-2.053-1.444-.481-2.92-.93-4.364-1.347-2.374-.674-4.46-1.99-6.642-4.14a5.357 5.357 0 0 1-.642-.802l-.706-1.156c-.738-1.187-1.476-2.374-2.15-3.561-.706-1.284-1.54-2.535-2.631-4.011-.385-.514-.803-1.06-1.156-1.605-.224-.32-.513-.514-.898-.642a2.365 2.365 0 0 0-.77-.16h-.064c-1.027 0-1.958.096-2.568.898-.674.867-1.444 1.957-1.733 3.273-.064.32-.16.674-.256.995l-.61 2.407a71.35 71.35 0 0 0-.866 3.787c-.482 2.374-.771 4.845-1.059 7.22l-.161 1.347c-.16 1.252-.16 2.535-.128 3.755 0 1.251.128 2.535.224 3.85.129 1.605.642 3.146 1.092 4.654l.16.513c.642 2.022 1.476 3.658 2.599 4.942l.385.481c.161.225.257.386.385.514 1.027 1.251 1.83 2.663 2.407 3.754a13.603 13.603 0 0 1 1.637 5.968c.096 1.797.224 3.563.417 5.296.289 2.47 1.059 4.78 2.342 6.834.674 1.091 1.509 2.055 2.311 2.985l.321.385c.224.257.481.513.77.706l.77.514c.963.642 1.958 1.315 2.984 1.925.931.545 1.958 1.155 2.888 1.861l.386.257.288.096c.385.16.706.481.899.866.192.385.16.835 0 1.252a8.803 8.803 0 0 0-.385 1.09 9.034 9.034 0 0 1-.385 1.028c-.738 1.797-1.027 3.754-1.22 5.583-.192 1.54-.385 3.306-.77 5.039-.192.834-.289 1.668-.417 2.503l-.225 1.572c0 .225-.064.481-.096.77l-1.219 5.904c-.129.61-.225 1.252-.321 1.862l-.257 1.572c-.064.481-.16.93-.257 1.38-.128.577-.288 1.123-.449 1.7-.16.546-.289 1.092-.449 1.637l-.161.674c-.224.834-.449 1.765-.577 2.663-.193 1.765-.61 3.627-1.252 5.905-.192.642-.385 1.316-.577 1.957l-.064.193a95.085 95.085 0 0 0-.835 2.824 27.297 27.297 0 0 1-1.187 3.562 36.725 36.725 0 0 1-3.979 7.413l-.867 1.219a47.053 47.053 0 0 0-1.059 1.509c-.802 1.187-1.732 2.246-2.759 3.112-.353.289-.706.578-1.091.867l-.803.641c-1.797 1.477-3.754 2.792-5.808 4.172-.224.161-.481.289-.738.417l-.385.225-.225.128c-.609.321-1.219.642-1.861.962l-1.027.514a91.103 91.103 0 0 1-4.011 1.957c-.866.385-1.733.707-2.631 1.06l-.321.128c-.449.161-.899.353-1.316.513-1.957.802-3.626 1.412-5.391 1.894l-.385.096c-1.733.449-3.498.898-5.263 1.283-.641.129-1.251.193-2.021.257h-.161a29.2 29.2 0 0 1-1.765.161l-1.347.096c-.418.032-.803.096-1.22.128h-.192c-.867.128-1.669.225-2.503.225-1.252.032-2.535.096-3.819.161l-2.631.128H207.941c-.61.032-1.188.064-1.765.064-.867 0-1.54-.032-2.214-.128h-1.605c-.898.064-1.765.096-2.631.096-.995 0-1.861-.032-2.664-.128-.16 0-.385-.032-.641-.032h-.385c-.193 0-.418.032-.674.032-.385 0-.771-.033-1.188-.065l-.994-.064h-2.247c-.995 0-2.021 0-3.016-.064h-.449c-1.188-.032-2.375-.064-3.594-.064h-8.986c-.609 0-1.251 0-1.861.032h-1.701c-.256.064-.513.064-.802.064-.513 0-.93 0-1.348-.096a8.247 8.247 0 0 0-1.54-.129c-.353 0-.706 0-1.059.064-1.797.193-3.273.29-4.621.29h-2.053c-.867.064-1.733.192-2.6.32-1.027.16-2.021.193-3.112.193-.674 0-1.284 0-1.862.096-.994.128-1.893.193-2.759.193-.417 0-.803 0-1.188-.032h-.353c-.224 0-.449 0-.706.064-.288.032-.609.096-.93.16-.321.065-.61.096-.931.16l-.642.097c-.77.096-1.444.225-2.15.225-2.246.064-4.075.288-5.776.737-.224.065-.417.065-.674.065h-.77c-.738 0-1.412.128-2.118.385-.192.096-.545.289-1.027.289-.16 0-.32-.001-.449-.065h-.096a2.14 2.14 0 0 0-.706.129c-.995.224-1.829.578-2.696.963l-1.347.577c-1.123.481-2.15.931-3.241 1.252-.931.257-1.829.706-2.696 1.315-.449.321-.931.61-1.412.899l-1.476.834c-.834.482-1.701.931-2.503 1.444a35.116 35.116 0 0 0-2.407 1.637l-.449.321c-.289.225-.61.449-.898.706-.546.417-.963.769-1.445 1.058-1.925 1.22-3.561 2.696-5.07 4.14-.513.481-1.027.995-1.508 1.476l-1.251 1.252c-1.091 1.059-2.215 2.149-2.985 3.529a19.004 19.004 0 0 1-1.315 1.958c-.29.385-.546.771-.77 1.156-.161.256-.322.513-.482.802-.289.481-.513.866-.802 1.219a25.992 25.992 0 0 0-1.83 2.792l-.16.321c-.192.353.097 1.059-.096 1.284-.738.962-.802 1.283-1.765 1.764-.802.385-1.99.771-2.824 1.316l-.192.256a4.189 4.189 0 0 0-.482.643 543.808 543.808 0 0 0-3.69 5.455 182.362 182.362 0 0 0-2.663 4.107c-1.445 2.247-2.856 4.525-4.268 6.771-.514.802-.995 1.636-1.509 2.439l-4.749 7.702a598.345 598.345 0 0 1-3.626 5.904c-1.444 2.31-3.209 4.653-5.423 7.123l-2.118 2.407c-1.284 1.476-2.567 2.953-3.883 4.397a60.85 60.85 0 0 1-3.209 3.273 46.11 46.11 0 0 1-1.861 1.669l-.16.16-.129.096a47.789 47.789 0 0 0-1.893 1.701c-1.316 1.219-2.792 2.246-4.332 3.241-.835.545-1.701 1.123-2.535 1.701l-2.022 1.379c-.513.321-.995.642-1.508.931l-1.155.61c-.642.353-1.284.674-1.894 1.027-1.925 1.187-3.786 2.15-5.648 2.92-.32.129-.641.321-.93.481l-.899.481c-.513.257-.93.482-1.38.706a734.736 734.736 0 0 1-4.877 2.119c-.642.256-1.284.513-1.925.738l-4.14 1.444-.16.064c-.546.192-1.091.385-1.605.545-.417.129-.834.257-1.252.353-.577.161-1.09.289-1.636.481-1.22.418-2.246.707-3.209.899l-.45.096c-.93.193-1.668.353-2.374.61-1.444.513-2.792.867-4.14.995-.288 0-.545.096-.834.161-.353.096-.61.385-.642.705 0 .257.065.578.45.771.32.16.577.289.994.353.546.128.995.16 1.38.16h.193c1.476 0 2.856.321 4.589.738 1.572.385 3.177.546 4.91.546h1.123l1.251-.064h.417a19.096 19.096 0 0 1 1.926-.097H19.125c1.508 0 3.113-.16 4.846-.481.866-.16 1.7-.353 2.535-.546l2.021-.449c1.38-.289 2.728-.61 4.076-.931.481-.128.995-.224 1.476-.321 1.155-.256 2.246-.481 3.273-.834.835-.289 1.669-.513 2.503-.738l.289-.096c.481-.129.93-.257 1.412-.385 1.22-.353 2.439-.771 3.658-1.188a73.329 73.329 0 0 0 2.824-1.026c.963-.385 1.925-.771 2.888-1.188l1.155-.481c.385-.16.77-.321 1.155-.514.418-.192.803-.385 1.188-.609l.16-.097c.514-.256.995-.513 1.508-.738 1.413-.641 2.857-1.444 4.461-2.503l2.246-1.444.193-.128a195.289 195.289 0 0 0 3.337-2.15c.77-.513 1.508-1.059 2.279-1.572.866-.61 1.7-1.22 2.535-1.765 1.219-.803 2.342-1.701 3.433-2.6.61-.481 1.188-.962 1.797-1.444l.128-.128c.29-.225-.064-.288.257-.288.225 0 1.637.352 2.31.384.61.032 0 .546 0 1.156v.481c0 1.315 0 2.663.065 3.979.096 2.15.32 4.493.738 7.349.481 3.497 1.027 7.252 1.925 10.974.61 2.631 1.348 4.749 2.247 6.578.353.739.706 1.509 1.026 2.279l1.124 2.599a57.6 57.6 0 0 0 1.444 3.209c1.476 2.984 2.439 6.129 2.823 9.338.129 1.027.129 1.926 0 2.792-.256 1.54-.705 3.113-1.476 5.103-.288.738-.673 1.444-1.155 2.31-.16.321-.289.481-.417.674-.257.353-.417.577-.546.834a45.51 45.51 0 0 0-1.38 2.92c-.641 1.54-.994 3.113-1.026 4.653v3.434c0 1.508.16 2.663.513 3.722a28.603 28.603 0 0 0 2.567 5.905 20.445 20.445 0 0 1 2.632 8.921v.577c0 .321 0 .61.064.866.289 2.247.224 4.686-.16 7.381-.353 2.439-.803 4.846-1.284 7.285-.61 3.177-.995 5.808-1.187 8.247l-.129 1.315c-.064.738-.16 1.476-.192 2.214-.032 1.027 0 2.086.064 3.241.064 1.38.642 2.664 1.251 4.044.45.995.899 2.022 1.669 2.888.32.353.642.641.995.962l.513.482c.803.77 1.637 1.348 2.471 1.701 1.091.481 2.118.93 3.177 1.315 1.669.61 3.53.931 5.487.931h.482c1.668-.064 3.112-.545 4.236-1.476.224-.16.288-.546.513-.546.834-.096 2.375-.706 2.375-.706.994 0 3.209-.449 3.85-1.219.097-.128.161-.225.257-.321.193-.257 1.701-.224 2.856-1.38 1.219-1.187 2.535-1.604 2.92-3.112.353-1.412.417-2.568.225-3.755l-.129-1.091a14.352 14.352 0 0 0-.288-1.54 17.97 17.97 0 0 0-.803-2.278 7.352 7.352 0 0 0-1.861-2.728c-1.059-.931-2.118-1.541-3.241-1.797l-.545-.129c-.353-.096-.706-.192-1.059-.224-.899-.128-1.829-.257-2.76-.385l-.546-.065a1.639 1.639 0 0 1-1.123-.706c-.93-1.412-1.7-3.048-2.503-5.262-.641-1.797-1.091-3.819-1.347-6.194-.161-1.508-.353-3.24-.45-4.973-.096-2.311-.096-4.621-.096-6.771v-.322c0-2.278 0-4.427.289-6.642.257-2.182.513-4.107 1.059-6.065.674-2.471 1.412-4.942 2.118-7.413.289-.93.609-1.989 1.059-3.048.449-1.059.962-2.086 1.444-3.081l.898-1.925c.321-.706.802-1.38 1.412-2.054.417-.449.834-.93 1.252-1.412 1.059-1.187 2.021-2.278 3.144-3.305.353-.321.674-.674 1.156-1.22l3.112-3.465c.385-.417.771-.835 1.123-1.252.321-.353.578-.705.803-1.09l3.594-5.809 1.283-2.117c.097-.193.193-.354.289-.514.77-1.123 1.412-2.342 2.022-3.53l.321-.642c.577-1.123 1.251-2.182 2.021-3.401.546-.899.899-1.541 1.156-2.183l2.438-5.519c.482-1.123.995-2.214 1.444-3.337.065-.193.129-.353.193-.546l.193-.513c.224-.61.802-.995 1.444-1.027h.032c.641 0 1.187.353 1.476.931.321.674.609 1.379.962 2.246l1.412 3.466c.289.674.546 1.347.803 2.021.577 1.637 1.027 3.145 1.187 4.749l.321 3.627c.192 2.278-.128 4.492-1.027 6.77l-.866 2.215c-.738 1.893-1.477 3.241-2.311 4.428l-2.086 2.952a21.088 21.088 0 0 1-1.251 1.701c-2.471 3.016-3.37 6.643-2.696 10.75.225 1.284.642 2.535 1.027 3.755l.225.738c.256.802.545 1.604.834 2.438.193.578.417 1.124.61 1.701.513 1.476.898 3.017 1.283 4.461l.45 1.637a43.475 43.475 0 0 1 1.412 8.407 22.22 22.22 0 0 1-.482 6.225c-.706 3.049-1.38 5.52-2.15 7.83l-1.444 4.364c-.16.449-.224.835-.289 1.188-.064.417-.096.866-.128 1.315-.032.482-.096.931-.128 1.38-.161 1.38-.065 2.76.288 4.236.257.995.546 2.15 1.22 2.664.128.096.225.192.321.32 1.091 1.508 2.503 2.535 4.236 3.081.064 0 .128.032.192.064.674.321 1.444.45 2.375.45 2.824 0 2.888-.032 5.263-1.444.417-.257.77-.386 1.155-.482.609-.129 1.219-.256 1.829-.417.289-.064.577-.128.866-.128a3.2 3.2 0 0 1 1.476.352 3.7 3.7 0 0 1 .45.257c1.091.642 2.246 1.059 3.626 1.283.289.065.577.097.898.097.321 0 .61-.064.77-.16.257-.128.514-.193.803-.193h.096c.192 0 .353-.032.545-.353 0-.032.097-.192.129-.224-.449.096.224-.385 0 0 0 0 1.604-.418 2.439-1.092.064-.064.321-.096.321-.096a14.083 14.083 0 0 0 3.529-3.915c.385-.642.61-1.284.674-1.958.225-2.246-.192-4.331-1.219-6.225-.578-1.027-1.284-1.829-2.118-2.374a3.26 3.26 0 0 0-1.765-.514c-.834 0-1.476.289-1.765.546l-.289.289c-.289.289.097.738.417.481.386-.321.033-.417-.417-.481-.417-.032-1.668-.064-2.31-.097l-.289-.321s-.257-.288-.353-.417l-.257-.321c-.288-.353-.513-.642-.674-.93-.994-1.797-1.636-3.626-1.925-5.488a42.664 42.664 0 0 1-.385-3.625c-.16-1.765-.321-3.755-.385-5.712-.064-1.316 0-2.632.064-3.755 0-.61.096-1.219.161-1.829.064-.546.096-1.027.128-1.508 0-.417.032-.835.064-1.252 0-.642.032-1.22.096-1.765.289-2.471.61-4.941 1.188-7.509.417-1.829.802-3.53 1.604-5.166.321-.642.578-1.284.802-1.925 1.156-3.241 2.953-6.034 4.525-8.312.995-1.444 2.086-2.856 3.049-4.075.577-.77 1.219-1.508 1.829-2.246l.16-.161 1.701-2.086c.321-.417.674-.834 1.027-1.251.192-.257.417-.482.642-.738.224-.257.417-.482.609-.674l.257-.321c.738-.899 1.444-1.733 2.118-2.599.545-.674 1.027-1.381 1.636-2.279.289-.449.578-.898.963-1.444l.481-.77c.45-.738.931-1.444 1.348-2.182.289-.481.546-.995.802-1.476.386-.738.739-1.348 1.092-1.99a30.23 30.23 0 0 0 1.764-3.529l.353-.835a22.6 22.6 0 0 1 .867-2.022 33.76 33.76 0 0 0 1.989-5.583c.161-.642.321-1.284.45-1.926.224-.963.417-1.796.641-2.631.867-3.048 1.412-5.391 1.797-7.766.033-.16.065-.256.065-.385a1.62 1.62 0 0 1 .866-1.252c.225-.128.481-.159.738-.159s.546.063.77.191l.45.257c.16.097.353.193.513.29 2.15 1.123 4.653 2.438 7.252 3.433l3.434 1.316c1.957.77 3.947 1.508 5.904 2.246 1.059.385 2.118.738 3.177 1.091l.193.064c.995.321 1.957.674 2.92 1.027 2.856 1.027 6.001 1.829 9.691 2.406 1.476.257 2.984.418 4.46.611l2.439.32a39.23 39.23 0 0 0 5.327.386h3.113c.321 0 .61 0 .866-.065l.321-.096c.161-.064.321-.096.514-.096.256 0 .513.064.738.192.385.193.674.546.802.995.192.738.417 1.444.642 2.15.256.802.513 1.637.738 2.471l.128.449c.417 1.508.834 3.049 1.38 4.525l.898 2.599c.353 1.027.739 2.182 1.156 3.273a42.236 42.236 0 0 0 2.631 5.423c.513.898.899 1.829 1.284 2.728l.256.577c.129.289.193.578.289.867.096.289.161.513.225.706.545 1.636.962 3.113 1.219 4.525l.353 1.957c.193 1.027.353 2.054.578 3.049.417 2.086.642 4.267.674 6.738v2.407c0 .353 0 .706-.032 1.059l-.321 3.626a172.95 172.95 0 0 0-.321 4.268l-.064.867c-.097 1.155-.161 2.118-.161 3.08 0 1.765.161 3.659.514 5.905a26.377 26.377 0 0 0 2.824 8.568c.192.353.385.674.609.995l.417.545c.225.289.418.545.578.802.642 1.059 1.155 2.182 1.669 3.273l.641 1.444c.193.482.386.931.61 1.284.834 1.284 1.476 2.695 2.022 4.332.128.353.256.706.353 1.059l.256.706c.706 2.022 1.124 4.14 1.252 6.546.096 1.412.096 2.857.128 4.236v3.401c0 1.477 0 2.985.129 4.461l.096.899c.128 1.316.257 2.631.642 3.947l.417 1.412c.16.513.321 1.059.481 1.604.385 1.316 1.123 2.407 1.926 3.53l.192.256s.225.257.385.354c.674.513 1.348.994 2.022 1.508 1.091.77 2.278 1.187 3.562 1.572.802.257 1.636.513 2.503.578.642.064 1.283.064 1.925.064h2.247c.192 0 .417-.097.577-.193.385-.321.706-.609 1.091-1.026a1.97 1.97 0 0 1 .835-.482l2.823-.577c.45-.097.803-.161 1.156-.257.032 0 .064 0 .096-.032.16-.065 0-.129.192-.065 0 0 2.15-.673 2.856-.962.161-.064.61-.353.61-.353.321-.257.642-.578.931-.963a1.626 1.626 0 0 1 1.283-.642c.321 0 .642.097.931.29l.225.16s.513-.064.609 0c.738.353 1.156.706 2.118.706h.257c.61 0 1.155-.386 1.604-.675.161-.096.353.161.514.129.096-.064.224-.128.353-.192a1.39 1.39 0 0 1 .609-.128c.546 0 1.059.256 1.348.738l.161.256c.385.609.898.995 1.508 1.155.417.097.802.161 1.219.161a4.53 4.53 0 0 0 1.156-.161c1.668-.449 3.209-1.316 4.685-2.631.321-.289.545-.546.706-.867.417-.93.866-1.861 1.315-2.791.482-.963.77-1.894.963-2.857.417-2.182.064-4.235-1.027-6.032-.289-.449.289 1.444.514.963.16-.353.706-1.894.192-3.241v-.065c-.225-.706-.674-1.283-1.155-1.829-.642-.738-1.348-1.09-2.214-1.09-.193 0-.385-.001-.578.063-1.412.225-2.631.867-3.658 1.894-.321.321-.642 2.117-1.059 2.117-.417 0-.867-1.796-1.155-2.085l-.418-.385-.352-.353c-.578-.546-1.059-1.027-1.509-1.605-1.251-1.572-2.246-3.305-2.92-5.134-.61-1.605-1.091-3.337-1.636-5.166-.418-1.477-.642-3.017-.867-4.493l-.16-1.155c-.225-1.348-.289-2.792-.289-4.685v-9.178c0-.738.032-1.476.096-2.182 0-.385.064-.77.096-1.123l.065-.835c.064-.738.064-1.508.096-2.278 0-.995.032-1.925.128-2.92.097-.802.129-1.604.193-2.407l1.572-18.644c.161-1.797.321-3.53.482-5.294.096-.931.192-1.862.32-2.793v-.321l.321-2.695c.161-1.572.321-3.112.482-4.653.032-.545.064-1.091.096-1.604.032-.802.096-1.509.16-2.215.097-.706.129-1.38.193-2.086.096-1.091.192-2.15.353-3.208.192-1.22.321-2.471.449-3.723l.225-1.957c.289-2.215.545-4.429.834-6.643.161-1.284.353-2.535.546-3.819a61.56 61.56 0 0 1 .449-2.406c.128-.738.289-1.476.417-2.214.546-3.145 1.059-6.322 1.605-9.467.096-.674.192-1.348.288-2.054l.803-4.717c-.321.385-.097-.449 0 0 .192-.225.353-.449.481-.706l.578-.995c.353-.642.706-1.219 1.058-1.765 1.156-1.733 2.054-3.626 2.889-5.423l.481-1.058c.385-.835.738-1.637 1.155-2.407 1.54-2.792 2.439-5.84 3.049-8.183l.77-3.081.738-3.017c.577-2.374 1.187-4.781 1.604-7.188l.385-2.181c.193-1.156.418-2.311.61-3.466.128-.835.225-1.701.321-2.567l.385-3.178c.225-1.861.481-3.69.738-5.519.225-1.701.482-3.401.738-5.102l.289-1.861c.128-.738.257-1.476.321-2.214.225-2.15.449-4.332.642-6.482v-.45c.064-.385.096-.738.096-1.123l.096-1.957c.064-.803.097-1.573.097-2.343v-9.177c0-1.091-.065-2.15-.129-3.241v-.77c-.064-.61-.93-1.509-.353-1.317.77.225 2.503-.096 2.792-.096-.257-.16.289 0 0 0 .321.225.674.418 1.027.578.385.193.674.353.93.513.642.45 1.38.771 2.247 1.124.321.128.642.256.93.385 1.412.706 2.953 1.09 4.557 1.476.963.224 1.958.321 2.952.417.45.032.867.097 1.316.129.321.032.674.064 1.027.064h1.251c2.921-.096 3.883-.354 4.204-.578.289-.225-.738-1.637-.417-1.637.192 0 .738.738.898.802.706.257-1.219.642-.513.835.385.128 1.027.289 1.637.289.224 0 .449 0 .641-.064.065 0 .129 0 .225-.033l.931-.096c.353-.032.77-.096 1.155-.193 1.508-.353 3.113-.802 4.685-1.444 2.567-1.026 4.845-2.053 6.771-3.882l.481-.417c.225-.225.546-.514.834-.834.129-.129.257-.29.386-.45l.256-.288c1.733-2.022 2.824-3.819 3.434-5.712.064-.193.128-.386.225-.611.545-1.155.77-2.406.994-3.722v-.449l-.256-.064a1.598 1.598 0 0 1-1.156-1.894c.193-.93.289-1.733.225-2.535 0-.16-.064-.353-.16-.706l-.097-.192-.128-.065a1.428 1.428 0 0 1-.867-.802c-.192-.417-.224-.93-.032-1.347v-.353c0-.16 0-.353.032-.514.129-.513-.096-.93-.256-1.187a27.023 27.023 0 0 0-2.535-3.947l-2.118-2.76a339.919 339.919 0 0 0-3.113-4.011c-1.861-2.343-3.305-4.332-4.589-6.322l-.545-.866c-.289-.481-.61-.931-.899-1.412l-2.888-4.717-.866-1.445c-.225-.385-.482-.801-.706-1.186-.353-.61-.77 0-.289-.514 0 0 .834-1.444 1.027-1.957.064-.193.192-.77.128-.803-1.444-.642.674-2.6.963-4.172.032-.224-.064-.288-.032-.352.417-1.348.385-1.957.449-2.375.064-.449-.449.353-.096.096h.032l.064-.064v-.16s.064-.257.096-.418l.129-1.86c.096-1.22.192-2.44.288-3.627.129-1.38.097-2.791-.096-4.492-.096-.706-.16-1.445-.449-2.183l-.321-2.053s0-.257-.064-.354c-.417-1.732-1.187-3.337-1.797-4.524-.064-.128-.257-.225-.257-.353.064-1.444.321-2.246.321-2.246.096-.097.353-.32.417-.417 1.669-1.99 3.049-4.044 4.108-6.162 1.347-2.728 2.695-5.487 4.043-8.246.802-1.67 1.476-3.241 2.022-4.782.385-1.027.898-2.022 1.283-2.728.514-.93.995-1.572 1.605-2.053 1.219-.995 2.278-1.637 3.369-2.086 1.316-.546 2.375-.77 3.402-.77.673 0 1.315.064 1.957.096h.802l.385.096c.931.289 1.862.417 2.824.545l1.123.161c.45.064.899.096 1.316.096.61 0 1.252-.064 1.829-.224 1.155-.29 1.894-.898 2.279-1.829.449-1.155.385-2.278-.193-3.305-.706-1.252-1.476-2.343-2.31-3.274h-.418Z"/><path fill="#190A05" d="m372.08 130.252-.257-.065a1.596 1.596 0 0 1-1.155-1.893c.192-.931.289-1.733.224-2.535 0-.161-.064-.353-.16-.706l-.096-.193-.129-.064a1.427 1.427 0 0 1-.866-.802c-.193-.418-.225-.931-.032-1.348v-.353c0-.16 0-.353.032-.513.128-.514-.096-.931-.257-1.187a26.886 26.886 0 0 0-2.535-3.947l-2.118-2.76a339.87 339.87 0 0 0-3.112-4.012c-1.862-2.342-3.306-4.332-4.589-6.321l-.546-.867c-.289-.481-.609-.93-.898-1.411l-2.888-4.718-.867-1.444c-.224-.385-.481-.802-.706-1.187-.353-.61-.77 0-.289-.513 0 0 .835-1.445 1.027-1.958.064-.193.193-.77.129-.802-1.444-.642.673-2.6.962-4.172.032-.225-.064-.288-.032-.353.417-1.347.385-1.957.45-2.374v-.16s.064-.258.096-.418l.128-1.861c.096-1.22.193-2.44.289-3.627.128-1.38.096-2.791-.096-4.492-.097-.706-.161-1.445-.45-2.183l-.32-2.053s-.001-.257-.065-.353c-.321-1.316-.834-2.535-1.347-3.594-6.996.096-12.676-5.969-17.201-10.59-4.941-5.07-10.621-9.113-17.264-10.974-2.182-.61-3.209-2.246-3.369-4.011-.77.096-1.54.16-2.279.288-1.411.225-2.888.546-4.46.899-.064 1.604-.963 3.112-2.343 4.107-.385.289-.994.77-1.7 1.38-.61.546-1.22 1.091-1.797 1.669-1.348 1.315-2.567 2.727-3.787 4.171-2.15 2.6-4.172 5.488-6.225 8.44-2.022 2.92-3.947 5.777-5.552 8.986-.738 1.444-1.476 2.887-2.31 4.267.417.674.674 1.476.706 2.439.128 6.642 5.583 12.483 9.53 17.36 4.397 5.392 9.082 10.975 12.291 17.168 1.829 3.498 2.984 6.868 5.808 9.724 2.599 2.599 4.781 5.198 6.771 8.279 4.107 6.354 9.787 11.777 14.729 17.553 0 0 .064 0 .096.032.321.128.642.256.931.385 1.412.706 2.952 1.091 4.557 1.476.962.224 1.957.321 2.952.417.449.032.866.097 1.316.129.32.032.673.064 1.026.064h1.252c2.92-.096 3.883-.353 4.204-.578.385.128 1.027.289 1.636.289.225 0 .449 0 .642-.064.064 0 .128 0 .225-.032l.93-.097c.353-.032.77-.095 1.155-.192 1.509-.353 3.113-.803 4.686-1.444 2.567-1.027 4.845-2.054 6.771-3.883l.481-.417c.224-.224.545-.513.834-.834a5.42 5.42 0 0 0 .385-.45l.257-.288c1.733-2.022 2.824-3.819 3.434-5.712.064-.193.128-.385.224-.61.546-1.155.77-2.407.995-3.723v-.449l-.064.065ZM383.696 29.938c-.706-1.252-1.476-2.343-2.31-3.273-.321.32-.738.48-1.156.48-.288 0-.577-.064-.834-.224a1.595 1.595 0 0 1-.642-1.957l.225-.545c-1.284-1.091-2.567-1.99-3.915-2.664-2.471-1.284-5.295-2.022-8.6-2.278a19.846 19.846 0 0 0-1.38-.065c-2.246 0-4.492.385-6.707 1.155a19.697 19.697 0 0 1-3.337.867c-.866.128-1.797.289-2.728.289a7.924 7.924 0 0 1-1.797-.193 28.99 28.99 0 0 1-2.374-.706c-1.059-.353-2.054-.674-3.113-.866a16.783 16.783 0 0 0-3.241-.32c-.898 0-1.733.063-2.567.255-.193.033-.417.065-.642.097l-.802.128c-1.444.257-3.338.739-4.974 1.894l-.481.32c-1.124.77-2.407 1.67-3.562 2.632-2.439 1.957-4.525 4.492-6.322 7.669-.385.706-.77 1.444-1.123 2.15 6.995 2.279 13.092 6.45 18.483 11.488 2.247 2.118 4.268 4.428 6.611 6.45.257.225.513.45.77.642.096.064.449.321.513.385a29.45 29.45 0 0 0 2.151 1.316l.192.096c.353.128.706.193 1.027.321.064 0 .064 0 .096.064.289-.064.674 0 .963 0 1.027-.064 1.989.29 2.792.899.289-.481.609-.963.834-1.445 1.348-2.727 2.696-5.486 4.043-8.246.803-1.669 1.476-3.241 2.022-4.781.385-1.027.898-2.022 1.284-2.728.513-.931.994-1.572 1.604-2.054 1.219-.994 2.278-1.637 3.369-2.086 1.316-.546 2.375-.77 3.402-.77.674 0 1.316.064 1.957.096h.803l.385.096c.93.29 1.861.417 2.824.546l1.123.16c.449.065.898.097 1.315.097.61 0 1.252-.065 1.83-.225 1.155-.289 1.893-.898 2.278-1.829.449-1.155.385-2.278-.193-3.305l-.096-.032ZM256.043 32.218l.161.513c.642 2.022 1.476 3.659 2.599 4.942l.385.481c.161.225.257.386.385.514 1.027 1.252 1.829 2.664 2.407 3.755a13.592 13.592 0 0 1 1.636 5.969 93.33 93.33 0 0 0 .418 5.294c.288 2.471 1.059 4.782 2.342 6.836.674 1.09 1.508 2.053 2.311 2.984l.321.384c.224.257.481.514.77.706l.77.514c.963.642 1.957 1.315 2.984 1.925.61.353 1.188.77 1.797 1.156.899-1.605 1.701-3.273 2.535-4.91 1.669-3.241 3.819-6.13 5.905-9.114 4.396-6.257 9.049-12.418 15.178-17.071-.257-1.861-.61-3.37-1.38-5.006-.513-1.091-.962-2.086-1.476-3.016-1.476-2.696-3.112-4.846-5.006-6.611-.577-.546-1.251-1.027-2.021-1.605l-.418-.32a14.264 14.264 0 0 0-1.668-1.06c-1.476-.834-3.113-1.508-4.782-2.053-1.444-.482-2.92-.93-4.364-1.348-2.374-.674-4.46-1.99-6.642-4.14a5.351 5.351 0 0 1-.642-.802l-.706-1.155c-.738-1.187-1.476-2.375-2.15-3.562-.706-1.283-1.54-2.535-2.631-4.011-.386-.514-.803-1.06-1.156-1.605-.224-.32-.513-.513-.898-.641a2.368 2.368 0 0 0-.77-.16h-.065c-1.026 0-1.957.096-2.567.898-.674.866-1.444 1.957-1.733 3.273-.064.32-.16.674-.256.995l-.61 2.407a71.321 71.321 0 0 0-.866 3.786c-.482 2.375-.771 4.846-1.059 7.22l-.161 1.348c-.16 1.251-.16 2.535-.128 3.754 0 1.252.128 2.536.224 3.851.129 1.605.642 3.145 1.092 4.653l-.065.032Z"/><path fill="#6CD9D3" d="M289.032 358.024c-.193.802-.546 1.283-1.188 1.604-.609.289-1.059.77-1.476 1.283-.128.161-.256.321-.417.514-.128-.065-.257-.128-.353-.192-1.412-1.124-2.984-1.284-4.621-.771-1.027.321-1.925.931-2.792 1.573-.256.192-.385.481-.449.802-.064.321.032.546.257.738a.789.789 0 0 0 .866.129c.225-.097.418-.258.61-.418.385-.257.738-.545 1.123-.77a3.861 3.861 0 0 1 1.99-.545c.513 0 .962.095 1.38.352 1.026.61 1.861 1.444 2.599 2.375.963 1.219 1.316 2.663 1.38 4.172 0 .706.064 1.38.032 2.086 0 1.091-.193 2.15-.738 3.112-.578 1.027-1.412 1.893-2.343 2.631a.956.956 0 0 1-.577.193c-1.38 0-2.792.064-4.172-.032-.899-.064-1.765-.353-2.631-.61-1.188-.353-2.375-.77-3.402-1.508-.674-.481-1.348-.994-2.022-1.476a2.05 2.05 0 0 1-.385-.353c-.834-1.187-1.7-2.375-2.118-3.819-.288-.994-.609-1.989-.898-2.984-.449-1.572-.546-3.209-.738-4.845-.225-2.182-.096-4.365-.129-6.579-.032-1.829 0-3.69-.128-5.519-.128-2.214-.513-4.397-1.251-6.514-.193-.578-.418-1.188-.61-1.766-.513-1.54-1.155-2.984-2.022-4.332-.353-.545-.577-1.187-.834-1.796-.674-1.412-1.252-2.857-2.086-4.204-.289-.482-.674-.899-.963-1.348a16.004 16.004 0 0 1-.609-.963c-1.412-2.695-2.375-5.551-2.824-8.567-.289-1.958-.481-3.916-.514-5.905 0-1.316.129-2.631.225-3.947.096-1.508.225-3.049.353-4.557l.289-3.305c0-.353.032-.706.032-1.027v-2.407c0-2.278-.193-4.493-.674-6.739-.353-1.669-.61-3.337-.931-5.005-.288-1.541-.738-3.049-1.219-4.525-.193-.514-.289-1.091-.513-1.573-.482-1.123-.931-2.246-1.541-3.305a47.389 47.389 0 0 1-2.631-5.455c-.61-1.54-1.123-3.145-1.669-4.717-.128-.385-.256-.803-.417-1.188-.61-1.637-1.027-3.305-1.508-4.973-.449-1.669-1.027-3.306-1.476-5.006-.385-1.38-.899-2.696-1.412-4.044-.353-.898-.77-1.765-1.155-2.663-.418-.995-.803-1.99-1.188-2.985-.674-1.668-1.219-3.401-1.893-5.07-.899-2.31-1.669-4.621-2.439-6.963-.738-2.214-1.38-4.429-2.054-6.675-.513-1.701-1.059-3.369-1.54-5.07a42.79 42.79 0 0 1-.513-1.925c-.129-.45-.257-.867-.385-1.316-.706-2.631-1.444-5.295-2.118-7.927-.353-1.379-.674-2.759-1.027-4.139-.096-.353-.225-.641-.642-.705-.481-.097-.931.128-.995.609-.032.385-.064.77 0 1.123.546 2.31 1.123 4.589 1.701 6.867.353 1.38.802 2.728 1.187 4.108.514 1.765.995 3.53 1.509 5.294.577 1.99 1.219 3.98 1.829 5.969.706 2.215 1.476 4.396 2.15 6.642.545 1.765 1.251 3.434 1.861 5.199.289.803.545 1.637.834 2.471.321.835.642 1.669.995 2.503.674 1.637 1.38 3.242 2.054 4.878.353.834.674 1.668.962 2.535.065.192.097.385.129.642-.738.128-1.412.064-2.118.064-.449 0-.899-.032-1.348 0-1.989 0-3.947-.096-5.937-.385-2.31-.321-4.62-.578-6.931-.931-3.305-.545-6.546-1.284-9.691-2.407-2.086-.77-4.204-1.411-6.29-2.182-3.112-1.155-6.225-2.407-9.338-3.594-2.503-.963-4.877-2.182-7.252-3.433-2.278-1.219-4.46-2.535-6.546-4.043-2.022-1.444-4.172-2.76-6.226-4.172-1.765-1.187-3.497-2.375-5.262-3.562-1.412-.963-2.888-1.765-4.429-2.504-1.187-.577-2.342-1.218-3.497-1.828-1.509-.77-3.017-1.573-4.686-2.022-1.444-.385-2.888-.706-4.332-1.059-1.636-.417-3.305-.353-4.974-.257-.224 0-.481.065-.705.129-.61.16-1.188.353-1.798.545a2.902 2.902 0 0 0-.834.418c-1.316.866-2.535 1.829-3.337 3.209-.289.481-.385 1.09-.578 1.668-.064.224-.096.482-.192.706-.417.995-.738 2.022-1.091 3.049-.674 1.893-1.124 3.851-1.605 5.808-.032.128 0 .289-.064.417-.417 1.155-.642 2.343-.963 3.498-.385 1.348-.738 2.663-1.123 4.011-.321 1.091-.706 2.182-1.059 3.273-.545 1.765-1.027 3.53-1.604 5.263-.417 1.251-.899 2.47-1.38 3.69-.514 1.283-1.091 2.568-1.637 3.819a555.061 555.061 0 0 0-1.925 4.267c-.128.257-.193.514-.321.771-.289.738-.706 1.444-1.123 2.118-.706 1.155-1.444 2.31-2.054 3.497-.738 1.412-1.476 2.824-2.342 4.172-.225.321-.386.674-.578.995l-4.621 7.413c-.225.385-.513.737-.802 1.09l-1.829 2.022c-.803.899-1.605 1.829-2.439 2.728-.385.417-.738.834-1.155 1.219-1.605 1.444-2.953 3.113-4.429 4.718a7.555 7.555 0 0 0-1.412 2.053c-.77 1.669-1.604 3.305-2.342 5.006a26.5 26.5 0 0 0-1.059 3.048 321.974 321.974 0 0 0-2.118 7.413c-.546 1.99-.802 4.012-1.059 6.066-.289 2.31-.257 4.653-.289 6.963 0 2.246 0 4.525.096 6.771.065 1.669.257 3.337.418 4.974.224 2.117.641 4.204 1.347 6.193.706 1.99 1.541 3.947 2.792 5.68.064.097.129.16.193.192 1.347.193 2.663.354 3.947.578.545.097 1.091.257 1.636.385 1.252.289 2.311.963 3.241 1.797.835.738 1.444 1.701 1.862 2.727.288.739.577 1.509.77 2.279.192.706.256 1.444.385 2.15.032.193 0 .417.064.61.225 1.219.064 2.439-.225 3.626-.385 1.541-1.347 2.535-2.92 3.113 0-.257 0-.418.032-.578.193-1.348.385-2.664.578-4.012a7.104 7.104 0 0 0-.128-2.47c-.353-1.444-.61-2.92-1.316-4.268-.706-1.316-1.733-2.246-3.241-2.535-.129 0-.289-.064-.417-.064-1.541.192-2.696 1.026-3.53 2.342-.129.225-.129.546-.129.802 0 .321.193.578.546.706.321.097.642.065.866-.192l.482-.674a2.705 2.705 0 0 1 1.412-1.026c.545-.161.962-.097 1.347.224.578.513 1.059 1.059 1.38 1.797.45 1.091.61 2.278.931 3.401.128.45.096.963.064 1.444-.096 1.444-.16 2.921-.61 4.333a7.97 7.97 0 0 1-1.315 2.471c-.642.802-1.509 1.219-2.535 1.251h-1.316c-.064-.128-.128-.193-.096-.257.256-1.508.192-3.048.256-4.589v-.738c0-1.636-.192-3.273-.706-4.813-.353-1.091-.834-2.15-1.797-2.856a2.504 2.504 0 0 0-.93-.449c-.995-.321-2.022-.289-2.985 0-1.123.353-2.182.93-2.92 1.893a16.275 16.275 0 0 0-1.22 1.797 3.24 3.24 0 0 0-.384 1.059c-.129.577.353 1.22.962 1.187a.615.615 0 0 0 .45-.224c.128-.161.224-.353.289-.546.385-1.219 1.091-2.182 2.117-2.856.803-.546 1.701-.931 2.728-.738.449.064.77.256 1.059.577.449.546.77 1.156.963 1.83.353 1.251.609 2.502.577 3.786 0 1.316-.032 2.632-.096 3.948a7.703 7.703 0 0 1-.417 2.246c-.161.417-.385.706-.706.995-1.252.995-2.696 1.412-4.268 1.476-2.022.064-4.043-.225-5.937-.931-1.09-.385-2.117-.867-3.177-1.316-.93-.417-1.732-.994-2.47-1.7-.514-.481-1.027-.931-1.509-1.445-.77-.866-1.251-1.925-1.7-2.952-.578-1.283-1.156-2.535-1.22-3.947a36.196 36.196 0 0 1-.064-3.241c.064-1.187.225-2.343.321-3.53.225-2.76.674-5.519 1.187-8.247.482-2.406.93-4.845 1.284-7.284.353-2.439.481-4.91.16-7.381-.064-.481 0-.962-.064-1.444a21.296 21.296 0 0 0-2.631-8.921c-1.06-1.893-1.926-3.851-2.567-5.937-.385-1.187-.482-2.438-.482-3.722v-3.433c0-1.605.385-3.177 1.027-4.653.417-.995.899-1.957 1.38-2.92.257-.482.642-.931.898-1.413.418-.802.867-1.572 1.188-2.406.642-1.669 1.187-3.337 1.476-5.102.16-.931.128-1.862 0-2.792a28.874 28.874 0 0 0-2.824-9.338c-.738-1.476-1.348-3.048-2.022-4.557-.513-1.187-.994-2.375-1.54-3.53-1.027-2.118-1.733-4.332-2.246-6.578-.835-3.626-1.412-7.284-1.926-10.975-.32-2.439-.61-4.91-.738-7.348-.096-2.15-.064-4.3-.096-6.45-.032-2.279.257-4.493.578-6.74.192-1.283.32-2.567.481-3.818.16-1.348.321-2.696.513-4.043.161-1.252.321-2.471.514-3.723.128-.866.257-1.733.417-2.567.289-1.701.61-3.433.93-5.134.097-.449.193-.899.29-1.316.288-1.284.61-2.567.898-3.851.32-1.315.61-2.631.93-3.947 0-.064.065-.128.065-.192.257-1.669.93-3.209 1.38-4.814.385-1.444.93-2.824 1.476-4.236.353-.898.674-1.828 1.027-2.727.192-.513.545-.995.706-1.508.577-1.861 1.572-3.562 2.438-5.295.674-1.316 1.252-2.696 2.183-3.915.256-.353.449-.77.673-1.155a25.992 25.992 0 0 1 1.83-2.792c.48-.642.834-1.347 1.283-2.021.706-1.027 1.476-2.023 2.086-3.114.834-1.412 1.957-2.502 3.113-3.625.898-.867 1.765-1.766 2.663-2.632 1.572-1.508 3.209-2.952 5.07-4.14.835-.513 1.541-1.186 2.343-1.732.93-.674 1.861-1.348 2.824-1.958 1.315-.802 2.663-1.508 3.979-2.246.481-.289.962-.578 1.412-.898a9.552 9.552 0 0 1 2.695-1.316c1.412-.417 2.728-1.027 4.076-1.604 1.027-.418 2.021-.899 3.112-1.156.289-.064.642-.225.899-.161.61.161 1.091-.063 1.604-.256.803-.321 1.605-.385 2.439-.353.353 0 .706 0 1.027-.064 1.893-.514 3.819-.706 5.776-.738.931 0 1.861-.193 2.792-.321.61-.097 1.219-.225 1.861-.289.353-.032.706-.064 1.027-.032 1.316.096 2.631 0 3.947-.161.61-.096 1.252-.096 1.861-.096 1.027 0 2.086-.032 3.113-.193.866-.128 1.733-.256 2.567-.32.578-.064 1.187 0 1.765 0 1.637 0 3.273-.097 4.878-.289a10.103 10.103 0 0 1 2.599.064c.866.161 1.733.096 2.599.064 1.027 0 2.086-.064 3.113-.064 2.535 0 5.07.064 7.605 0 3.337-.096 6.675.193 10.012.096.321 0 .61.001.931.065.866.064 1.733.192 2.599.096.353-.032.706 0 1.027 0 2.118.225 4.236.096 6.354 0 .16 0 .353-.064.513 0 1.669.225 3.337.096 5.006.064h2.503c2.15-.096 4.3-.257 6.45-.289 1.316-.032 2.631-.257 3.947-.353 1.027-.096 2.086-.16 3.113-.256.738-.064 1.444-.129 2.182-.289 1.893-.418 3.786-.899 5.648-1.412 1.861-.481 3.626-1.156 5.391-1.894 1.412-.577 2.856-1.059 4.268-1.701 1.7-.77 3.369-1.636 5.038-2.471.834-.417 1.668-.866 2.503-1.315.256-.128.481-.256.738-.417 1.989-1.347 3.979-2.663 5.84-4.204.61-.513 1.252-.994 1.861-1.508a14.985 14.985 0 0 0 2.76-3.112c.61-.931 1.284-1.798 1.925-2.728a36.68 36.68 0 0 0 3.98-7.413c.449-1.155.866-2.342 1.155-3.562.449-1.668 1.027-3.305 1.476-5.006.545-1.925.995-3.883 1.251-5.905.129-1.123.45-2.246.738-3.337.289-1.123.61-2.214.899-3.305.16-.641.257-1.284.353-1.957.16-.963.321-1.925.513-2.856.385-1.99.835-3.947 1.22-5.905.096-.45.096-.898.16-1.347.193-1.156.321-2.343.546-3.498.353-1.67.577-3.338.77-5.039.225-1.893.513-3.786 1.251-5.583.385-.93.578-1.925 1.091-2.792.097-.16.129-.321.225-.481.417-.77.866-1.509 1.284-2.247.706-1.315 1.412-2.631 2.021-3.979.482-1.059 1.091-2.086 1.701-3.112.931-1.54 1.893-3.081 3.049-4.461.738-.867 1.379-1.829 2.182-2.631.674-.674 1.251-1.476 1.893-2.214 1.637-1.797 3.369-3.498 5.263-5.038a38.857 38.857 0 0 0 1.733-1.476c2.021-1.733 4.267-3.05 6.867-3.755 2.278-.642 4.589-1.188 6.899-1.54 1.348-.193 2.696-.321 4.043-.482h.321c1.476.321 3.049.193 4.493.738 1.283.482 2.663.707 4.011 1.124.642.192 1.251.449 1.829.738a88.103 88.103 0 0 1 3.466 1.86c.802.45 1.508.963 2.15 1.637 1.476 1.508 2.759 3.21 3.947 4.942 1.091 1.605 2.246 3.177 3.53 4.653.096.096.192.225.256.321.738 1.123 1.733 1.99 2.792 2.76.61.449 1.22.93 1.829 1.348.45.32.931.577 1.412.866.642.353 1.316.641 1.926 1.026.994.61 1.989 1.252 2.952 1.926.289.225.577.546.738.867.738 1.444 1.412 2.952 1.797 4.556.032.16.032.322.064.546-.289.16-.577.32-.866.417-1.252.417-2.439 1.06-3.498 1.797-1.765 1.252-3.145 2.824-3.658 5.006-.289 1.156-.321 2.342-.257 3.53a14.297 14.297 0 0 0 1.508 5.487c.385.738.706 1.509 1.091 2.247.129.289.321.513.514.77.16.225.321.45.449.706.545 1.22 1.284 2.31 1.989 3.4.867 1.316 1.605 2.664 2.407 4.012l2.888 4.718c.482.77.963 1.508 1.476 2.278 1.412 2.214 2.953 4.3 4.589 6.322 1.765 2.214 3.498 4.524 5.231 6.738.963 1.219 1.797 2.568 2.535 3.948.192.385 1.155 1.925 1.187 2.182-.128.16-1.187-.097-1.348-.129-.802-.224-1.604-.481-2.406-.674-.674-.16-1.38-.257-2.054-.289-1.893-.128-3.754.097-5.616.322-1.347.16-2.663.417-4.011.705-1.091.225-2.15.61-3.145 1.123-.866.449-1.765.995-2.246 1.958-.738 1.54-.898 3.112-.16 4.685.706 1.476 1.797 2.632 2.92 3.755.77.802 1.701 1.444 2.599 2.085.546.385 1.059.771 1.637 1.124.513.289 1.026.577 1.572.77.674.257 1.38.481 2.086.674 1.315.385 2.599.288 3.883-.161 1.251-.481 2.406-1.091 3.369-1.99.899-.834 1.637-1.796 2.278-2.823.161-.225.289-.482.45-.706a9.507 9.507 0 0 0 1.155-2.182c.096-.257.225-.514.321-.771.257.128.16.321.16.45-.224 1.315-.449 2.599-1.027 3.818-.096.193-.16.385-.224.578-.706 2.15-1.958 3.979-3.402 5.679-.224.257-.417.546-.642.803-.288.321-.641.642-.962.963-.129.128-.289.192-.417.321-1.926 1.829-4.332 2.856-6.739 3.85-1.508.61-3.081 1.027-4.685 1.412-.578.129-1.156.193-1.733.257h-.417c-.835.193-1.637.064-2.439-.193a38.184 38.184 0 0 1-3.241-1.091c-1.797-.738-3.434-1.797-5.07-2.856-1.252-.802-2.503-1.604-3.594-2.663-1.99-1.284-3.723-2.888-5.456-4.493-1.476-1.347-2.856-2.824-4.203-4.3-1.605-1.797-3.017-3.722-4.397-5.68-.738-1.027-1.347-2.118-1.989-3.177-.193-.288-.321-.609-.449-.93-.321-.641-.61-1.316-.963-1.957-.674-1.252-1.155-2.6-1.573-3.947-.192-.674-.481-1.284-.77-1.926-.128-.289-.321-.449-.642-.481-.417-.032-.77.16-.898.545-.16.417-.064.803.064 1.22.289.77.578 1.572.867 2.343.224.577.417 1.187.609 1.765.064.16.161.32.225.481.481.834.931 1.701 1.284 2.599.192.546.545 1.059.834 1.54 1.572 2.728 3.401 5.231 5.359 7.669a38.307 38.307 0 0 0 2.631 2.953c1.155 1.123 2.246 2.246 3.402 3.369a46.67 46.67 0 0 0 2.374 2.022c1.669 1.38 3.402 2.631 5.167 3.883 1.925 1.348 3.915 2.632 6.097 3.594v.16c-.77 0-1.508.064-2.246-.032-1.412-.193-2.824-.225-4.236-.577-1.541-.386-3.113-.771-4.557-1.476-.353-.161-.706-.29-1.059-.45-.738-.289-1.476-.609-2.118-1.091-.321-.224-.674-.385-.995-.545-1.187-.61-2.214-1.413-3.145-2.375-.802-.867-1.668-1.668-2.503-2.503-.834-.866-1.636-1.797-2.47-2.696-.738-.834-1.509-1.636-2.247-2.47-.93-1.092-1.829-2.183-2.631-3.338-.61-.866-1.284-1.637-1.893-2.471-1.059-1.412-2.118-2.823-3.177-4.267-.514-.706-1.027-1.381-1.637-2.022-1.572-1.669-3.145-3.338-4.685-5.007a3.947 3.947 0 0 0-.513-.513c-.353-.321-.642-.321-1.059-.096-.546.321-.674.674-.289 1.188.449.577.931 1.123 1.444 1.636 1.155 1.22 2.375 2.439 3.53 3.69.61.674 1.155 1.38 1.701 2.118 1.155 1.476 2.278 2.985 3.401 4.461.674.898 1.284 1.796 1.99 2.695 1.091 1.38 2.182 2.76 3.337 4.107a109.842 109.842 0 0 0 3.722 4.076c.771.802 1.476 1.636 2.343 2.342.385.289.674.707 1.027 1.027.224.225.256.482.289.771.064 1.54.192 3.048.192 4.588.032 3.049 0 6.13 0 9.178 0 1.187-.128 2.343-.192 3.53 0 .61 0 1.251-.065 1.861-.192 2.31-.417 4.621-.673 6.932-.129 1.187-.386 2.342-.546 3.497a336.484 336.484 0 0 0-.834 5.68c-.321 2.439-.642 4.878-.963 7.349-.16 1.315-.289 2.631-.513 3.915-.289 1.893-.674 3.754-.995 5.647-.482 2.728-1.155 5.424-1.829 8.119-.418 1.733-.803 3.433-1.252 5.166-.738 2.824-1.636 5.584-3.048 8.183-.61 1.123-1.091 2.311-1.637 3.498-.866 1.861-1.765 3.69-2.888 5.423-.578.899-1.091 1.862-1.669 2.792-.16.257-.321.546-.545.77-1.797 2.022-3.626 4.011-5.584 5.872-1.829 1.701-3.69 3.37-5.551 5.039-1.22 1.059-2.471 2.117-3.787 3.08-1.123.802-2.182 1.733-3.273 2.567-.706.546-1.476 1.027-2.214 1.541-.097.064-.225.096-.449.16 0-.256 0-.417.064-.577.289-1.187.417-2.375.802-3.53.481-1.444 1.027-2.888 1.38-4.364.385-1.669 1.091-3.209 1.636-4.846.418-1.283.995-2.535 1.477-3.787.898-2.342 1.797-4.653 2.663-6.995.417-1.123.866-2.279 1.251-3.434a326.23 326.23 0 0 0 2.15-6.097c.514-1.508 1.059-3.016 1.541-4.524.417-1.284.802-2.6 1.123-3.883.61-2.279 1.123-4.589 1.797-6.835.513-1.765.963-3.562 1.284-5.359.609-3.113 1.123-6.226 1.636-9.339.225-1.347.257-2.695.449-4.043.161-1.123.257-2.278.289-3.433.064-1.476.225-2.985-.064-4.461-.064-.417-.064-.834-.064-1.251 0-.77-.289-1.348-1.155-1.54-.482.16-.706.545-.674 1.09.064.867.128 1.733.16 2.6 0 .385.064.77.064 1.155-.064 1.637-.064 3.273-.224 4.877-.289 2.792-.546 5.584-1.091 8.344-.321 1.669-.578 3.37-.931 5.006-.481 2.278-.995 4.556-1.604 6.803-.61 2.214-1.188 4.428-1.797 6.642-.674 2.439-1.38 4.878-2.311 7.253-.449 1.155-.834 2.343-1.219 3.53-.45 1.316-.931 2.631-1.38 3.915-.61 1.636-1.188 3.241-1.829 4.878-.674 1.732-1.38 3.497-2.054 5.23-.738 1.925-1.476 3.819-2.15 5.744-.578 1.636-1.059 3.305-1.605 4.942-.128.417-.288.866-.385 1.283-.288 1.091-.545 2.15-.802 3.241-.289 1.252-.61 2.503-.866 3.754-.257 1.252-.45 2.536-.642 3.788-.257 1.508-.481 3.016-.738 4.524-.096.642-.193 1.316-.225 1.958-.096 1.54-.321 3.048-.321 4.588 0 1.156-.16 2.279-.224 3.434-.064 1.541-.097 3.048-.161 4.589 0 .513-.064 1.027-.064 1.572-.064 1.669-.096 3.338-.192 5.006a570.23 570.23 0 0 1-.418 7.381 640.799 640.799 0 0 1-.609 7.798c-.161 1.893-.385 3.786-.578 5.712-.225 2.31-.545 4.62-.898 6.931-.193 1.219-.257 2.503-.418 3.722-.224 1.797-.545 3.562-.738 5.359-.224 1.99-.641 3.979-.674 6.001 0 .738-.192 1.444-.256 2.182-.129 1.22-.225 2.407-.353 3.626 0 .321-.032.61-.032.931 0 2.375.128 4.717.385 7.06.16 1.379.321 2.759.545 4.139.129.835.385 1.637.61 2.407.385 1.251.738 2.535 1.187 3.754.193.514.45.995.706 1.508.514.963 1.027 1.894 1.508 2.857.642 1.219 1.509 2.246 2.471 3.209 1.027 1.027 2.086 2.021 3.402 2.791l.321-.32Zm37.256-274.945c-.834-.321-.931-.353-1.38.225-.513.674-1.155 1.187-1.797 1.7-.513.386-1.027.707-1.637.867-.962.257-1.925.513-2.92.738-1.059.257-2.118.257-3.209.225-1.155-.032-2.278-.29-3.369-.578-.963-.257-1.958-.513-2.76-1.155-.224-.16-.417-.353-.642-.513-.353-.225-.898-.194-1.155.095-.353.385-.417.835 0 1.188.417.417.867.803 1.38 1.091.931.514 1.925.898 3.016 1.09.546.097 1.091.194 1.637.322 1.444.353 2.888.321 4.332.129 1.54-.16 2.984-.642 4.428-1.06.578-.16 1.124-.385 1.605-.738.61-.449 1.187-.93 1.765-1.444a3.08 3.08 0 0 0 .642-.802c.256-.417.385-.899.096-1.412l-.032.032Z"/><path fill="#6CD9D3" d="M139.718 256.652c.738-2.439 1.444-4.846 2.215-7.22.802-2.375 1.411-4.814 2.085-7.188.418-1.412.674-2.824 1.091-4.236.45-1.605.803-3.241 1.38-4.814a58.898 58.898 0 0 0 1.188-3.337c.32-.995.866-1.893 1.476-2.727.706-.963 1.733-1.477 2.792-1.926.994-.417 2.085-.449 3.176-.481 1.894-.032 3.627.578 5.424.931 2.053.385 3.882 1.251 5.712 2.181 1.219.61 2.438 1.188 3.626 1.862 2.053 1.155 4.139 2.246 6.065 3.658 1.283.963 2.631 1.797 3.979 2.664 2.342 1.572 4.653 3.144 6.995 4.717.963.641 1.958 1.283 2.985 1.989.16.289 0 .642-.065.963-.417 2.567-1.059 5.102-1.765 7.605-.417 1.508-.705 3.048-1.091 4.557a31.253 31.253 0 0 1-1.989 5.583c-.449.931-.802 1.926-1.22 2.889a27.924 27.924 0 0 1-1.764 3.529c-.674 1.123-1.252 2.343-1.894 3.466-.577.995-1.187 1.957-1.797 2.92-.321.513-.642.995-.962 1.476-.546.77-1.059 1.54-1.637 2.278-.77.995-1.572 1.958-2.375 2.921-.385.481-.834.93-1.219 1.412-.578.706-1.123 1.411-1.701 2.117-.995 1.22-1.989 2.407-2.952 3.627a123.672 123.672 0 0 0-3.081 4.075c-1.797 2.6-3.433 5.295-4.524 8.311-.225.642-.514 1.284-.803 1.926-.834 1.7-1.219 3.529-1.636 5.358-.546 2.407-.867 4.846-1.155 7.317-.129.995-.097 2.022-.161 3.017-.096 1.123-.224 2.214-.289 3.305a48.99 48.99 0 0 0-.064 3.755c.096 1.893.225 3.818.385 5.712.097 1.219.225 2.406.385 3.625.289 1.958.963 3.755 1.926 5.488.256.449.609.834.93 1.252.161.224.353.417.578.673-.481.867-.931 1.701-1.412 2.535-.257 0-.449.097-.674.065-1.027-.064-1.989.256-2.92.673-.578.257-1.059.674-1.316 1.284a1.303 1.303 0 0 0-.128.609c0 .546.674.932 1.155.643.161-.097.289-.193.385-.322.674-.834 1.605-1.027 2.599-1.155.867-.096 1.733 0 2.6.225 1.091.289 1.893.963 2.471 1.958.545.962.834 1.989.898 3.08.096 1.252.096 2.503-.192 3.722a7.514 7.514 0 0 1-.995 2.407c-.129.225-.289.385-.578.353-.16 0-.353.032-.513.097-.674.32-1.38.256-2.054.159-1.251-.192-2.439-.545-3.53-1.219-.192-.096-.353-.225-.545-.321-.738-.353-1.509-.449-2.343-.224-.61.161-1.219.289-1.829.417a3.66 3.66 0 0 0-1.155.482c-2.439 1.444-2.439 1.444-5.295 1.444-.802 0-1.604-.129-2.343-.45-.064 0-.128-.064-.192-.064-1.765-.546-3.145-1.573-4.236-3.081 0 0-.032-.064-.064-.064-.931-.77-1.187-1.829-1.476-2.92-.353-1.412-.482-2.792-.289-4.236.128-.899.16-1.797.257-2.695.064-.417.16-.835.288-1.22.482-1.444.963-2.887 1.445-4.364.866-2.567 1.54-5.199 2.15-7.83.481-2.022.609-4.139.481-6.225a39.398 39.398 0 0 0-1.412-8.407c-.546-2.054-1.027-4.108-1.733-6.13-.481-1.38-.995-2.728-1.444-4.14-.481-1.476-1.027-2.952-1.284-4.492-.673-3.979.097-7.606 2.696-10.75.642-.77 1.187-1.637 1.765-2.439.513-.738 1.059-1.476 1.572-2.214.963-1.38 1.669-2.888 2.311-4.428.289-.738.609-1.477.866-2.215.835-2.182 1.22-4.428 1.027-6.738-.096-1.22-.225-2.407-.321-3.627-.16-1.636-.674-3.209-1.187-4.749-.353-1.027-.802-1.989-1.187-2.984-.321-.834-.674-1.669-.995-2.503a77.564 77.564 0 0 0-1.027-2.407c-.128-.289-.353-.513-.546-.802v.032ZM308.221 356.386c.257-.288.482-.545.706-.802 1.059-1.155 2.343-1.926 3.915-2.182 1.155-.193 2.054.192 2.792 1.027.449.545.931 1.123 1.155 1.829-.128 0-.224.064-.224.032-.706-.706-1.605-.931-2.536-1.091-.673-.129-1.315.064-1.925.321a7.48 7.48 0 0 0-3.466 2.567c-.096.097-.16.224-.288.353-.289-.161-.546-.289-.835-.449-.706-.353-1.412-.385-2.214-.129-1.637.514-2.695 1.701-3.722 2.888-.353.385-.482.995-.642 1.508-.128.45.128.899.513 1.027.417.161.931-.064 1.123-.513.418-1.251 1.412-2.054 2.407-2.792a2.803 2.803 0 0 1 1.155-.449c.674-.096 1.156.257 1.316.931.289 1.412.321 2.791 0 4.203a20.2 20.2 0 0 1-1.54 4.3c-.289.578-.674 1.156-1.027 1.701-.417.61-.963 1.091-1.701 1.283a2.034 2.034 0 0 0-.385.161c-.545.353-1.187.353-1.797.385-.931 0-1.797-.096-2.631-.513-.161-.065-.289-.192-.417-.257v-.353c.577-1.765.738-3.594.802-5.455.032-1.284.096-2.567-.129-3.851-.224-1.347-.577-2.631-1.155-3.882-.481-.963-1.219-1.702-2.086-2.247a2.724 2.724 0 0 0-2.182-.385c-.77.193-1.572.321-2.246.738-.385.225-.738.225-1.059 0a18.45 18.45 0 0 1-1.604-1.155c-.61-.546-1.188-1.155-1.765-1.765-.803-.834-1.38-1.829-1.894-2.856a16.13 16.13 0 0 0-.706-1.283 12.072 12.072 0 0 1-1.347-2.921c-.418-1.348-.867-2.696-1.284-4.076-.096-.288-.16-.609-.225-.897-.224-1.797-.545-3.563-.706-5.36-.128-1.572-.192-3.113-.256-4.685-.032-1.091.128-2.214.192-3.337 0-.097.064-.192.064-.321-.096-1.797.482-3.498.45-5.295 0-.674.16-1.38.256-2.053.385-2.856.835-5.713 1.156-8.569a801.72 801.72 0 0 1 1.123-8.664c.096-.802.096-1.604.192-2.375.161-1.7.353-3.368.514-5.069.096-.995.16-1.99.224-3.017.129-1.637.257-3.241.385-4.878.032-.513.065-1.027.097-1.572.064-1.123.16-2.215.192-3.338l.289-6.545c.064-1.605.257-3.177.225-4.782-.032-1.572.192-3.113.224-4.653.064-2.343.353-4.621.578-6.964.128-1.379.417-2.759.642-4.107.224-1.284.417-2.599.641-3.883.931-.61 1.798-1.155 2.664-1.733a166.66 166.66 0 0 0 2.952-2.15c.514-.385 1.027-.802 1.573-1.187 1.412-1.059 2.823-2.15 4.139-3.337 1.316-1.187 2.664-2.311 3.979-3.498 1.348-1.219 2.632-2.471 3.947-3.722.289-.289.546-.61.835-.931.256-.289.481-.577.962-.77-.16 1.123-.288 2.15-.449 3.145a973.88 973.88 0 0 1-1.604 9.466c-.257 1.54-.578 3.081-.835 4.621-.224 1.251-.385 2.535-.545 3.818-.289 2.215-.578 4.397-.835 6.611-.224 1.893-.385 3.787-.674 5.68-.288 1.765-.32 3.529-.545 5.294-.161 1.284-.16 2.568-.289 3.852-.128 1.636-.321 3.241-.481 4.877-.193 1.862-.417 3.723-.61 5.584-.192 1.765-.321 3.53-.481 5.295-.129 1.508-.257 3.048-.385 4.556-.097 1.284-.257 2.568-.353 3.819-.097 1.156-.161 2.278-.257 3.433-.096 1.188-.225 2.343-.353 3.53-.064.739-.128 1.444-.16 2.182-.097 1.188-.161 2.343-.289 3.531-.193 1.732-.097 3.465-.225 5.198-.032.641-.128 1.316-.16 1.957-.032.739-.065 1.444-.065 2.182v9.178c0 1.573.065 3.113.289 4.685.289 1.894.514 3.787 1.027 5.616.482 1.733.995 3.465 1.637 5.166a18.968 18.968 0 0 0 2.92 5.135c.578.706 1.219 1.316 1.861 1.957.417.418.867.802 1.316 1.187.096.097.224.161.385.257l-.225.032ZM299.396 41.49c-.192.16-.353.322-.513.418-1.604 1.187-3.209 2.438-4.685 3.786-.513.481-1.091.866-1.605 1.348a146.757 146.757 0 0 0-3.112 3.209c-1.444 1.54-2.76 3.209-4.14 4.813-.834.995-1.54 2.054-2.246 3.113a49.767 49.767 0 0 0-2.631 4.59c-.482.962-.899 1.956-1.412 2.887-.514.93-1.059 1.861-1.541 2.824-.128.257-.385.482-.609.802-.193-.128-.385-.225-.546-.353-.898-.706-1.893-1.284-2.888-1.861-1.284-.739-2.503-1.605-3.754-2.44a3.211 3.211 0 0 1-.771-.705c-.93-1.091-1.861-2.15-2.631-3.369-1.316-2.118-2.054-4.397-2.343-6.835a99.291 99.291 0 0 1-.417-5.295c-.128-2.118-.641-4.108-1.636-5.969-.706-1.316-1.476-2.599-2.407-3.754-.257-.321-.481-.674-.77-.995-1.252-1.444-2.022-3.145-2.599-4.942-.514-1.7-1.091-3.369-1.252-5.134-.096-1.284-.225-2.568-.225-3.851 0-1.252 0-2.503.129-3.755.353-2.855.642-5.743 1.219-8.567.353-1.733.802-3.434 1.22-5.167.16-.674.353-1.347.513-2.021.289-1.252.963-2.31 1.733-3.306.61-.802 1.54-.866 2.471-.898.321 0 .61.064.93.16.385.097.674.289.899.642.353.546.77 1.059 1.155 1.604.963 1.284 1.861 2.6 2.632 3.98.898 1.604 1.893 3.144 2.855 4.717.193.288.418.577.642.802 1.894 1.893 4.044 3.402 6.643 4.14a98.38 98.38 0 0 1 4.364 1.347 28.598 28.598 0 0 1 4.781 2.054c.578.321 1.124.674 1.669 1.059.834.61 1.701 1.22 2.471 1.925 2.054 1.894 3.658 4.172 5.006 6.611.578 1.059 1.091 2.182 1.604 3.273.803 1.765 1.124 3.658 1.38 5.552.161 1.155.225 2.342.353 3.53l.064.031ZM351.125 61.485c-.77-.513-1.572-.866-2.278-1.412-.642-.513-1.412-.866-2.182-1.219-1.156-.545-2.15-1.284-3.145-2.022-.417-.32-.835-.61-1.22-.995a17.717 17.717 0 0 1-1.444-1.636 37.965 37.965 0 0 1-1.765-2.182c-.674-.93-1.315-1.861-1.989-2.792-1.412-1.925-2.76-3.914-4.557-5.551-.481-.45-1.027-.835-1.572-1.188-.931-.577-1.926-1.123-2.888-1.669-.482-.256-.963-.545-1.477-.77-.802-.32-1.636-.61-2.47-.834-1.38-.385-2.76-.738-4.108-1.123-.128-.032-.257-.096-.449-.192.064-.225.096-.418.192-.578.835-1.605 1.605-3.242 2.503-4.814 1.669-2.92 3.691-5.551 6.322-7.67 1.284-1.058 2.664-1.988 4.043-2.951 1.509-1.059 3.241-1.573 5.038-1.894.482-.096.963-.128 1.444-.224 1.926-.386 3.883-.29 5.809.064 1.059.192 2.086.513 3.112.866.803.257 1.573.514 2.407.706 1.508.385 3.049.16 4.557-.064a19.26 19.26 0 0 0 3.305-.867c2.631-.898 5.327-1.315 8.119-1.09 2.984.224 5.904.866 8.6 2.278 1.765.899 3.273 2.054 4.717 3.402.16.128.289.288.449.417 1.444 1.251 2.535 2.76 3.466 4.396.61 1.091.642 2.182.192 3.306-.417 1.026-1.251 1.571-2.278 1.828a7.842 7.842 0 0 1-3.113.129c-1.347-.225-2.695-.321-4.011-.738-.16-.065-.353-.065-.513-.065-.867-.064-1.733-.128-2.6-.128-1.187 0-2.342.32-3.433.77-1.22.513-2.311 1.252-3.37 2.086-.673.546-1.187 1.284-1.604 2.054a21.193 21.193 0 0 0-1.284 2.728c-.577 1.636-1.283 3.24-2.021 4.78-1.348 2.76-2.664 5.488-4.044 8.248-1.091 2.214-2.503 4.268-4.075 6.161-.096.128-.257.224-.449.417l.064.032ZM89.626 186.826c-.513 1.091-1.251 2.439-1.732 3.53-.77 1.733-1.477 3.498-2.215 5.262a34.132 34.132 0 0 0-.93 2.536c-.417 1.283-.802 2.567-1.252 3.85-.61 1.797-.962 3.69-1.476 5.52-.417 1.54-.706 3.112-1.027 4.685a.987.987 0 0 1-.096.417c-.578 1.476-.674 3.048-.963 4.589-.16.802-.288 1.636-.417 2.471a163.688 163.688 0 0 0-.61 3.915c-.16 1.091-.385 2.182-.545 3.273-.128.866-.257 1.733-.32 2.599-.13 2.054-.45 4.075-.739 6.097-.128.866-.192 1.733-.257 2.599-.064.738-.096 1.444-.224 2.182-.064.45-.225.867-.353 1.284-.064.193-.225.353-.385.481-1.765 1.348-3.402 2.856-5.263 4.076-1.637 1.059-3.177 2.246-4.782 3.337-1.893 1.284-3.85 2.471-5.776 3.722-1.444.931-2.888 1.765-4.46 2.503-.963.45-1.925.963-2.888 1.444-.481.225-.963.418-1.444.611l-3.755 1.54c-.93.353-1.893.705-2.824 1.026-1.219.417-2.438.803-3.658 1.188-1.412.417-2.824.738-4.203 1.187-1.54.513-3.177.77-4.75 1.155-1.733.418-3.465.803-5.166 1.188-1.155.257-2.31.546-3.466.738-1.893.353-3.787.545-5.712.481-1.476-.064-2.92.096-4.364.129-2.022.096-4.011-.064-6-.546-1.573-.385-3.178-.803-4.814-.738-.482 0-.963-.096-1.444-.192-.29-.065-.578-.193-.867-.322-.32-.16-.449-.417-.449-.77 0-.321.257-.641.642-.706.257-.064.545-.128.834-.16 1.412-.161 2.792-.514 4.14-.995.898-.321 1.86-.514 2.824-.706 1.09-.225 2.15-.546 3.209-.899.962-.321 1.925-.545 2.888-.834.898-.289 1.764-.609 2.663-.93 1.091-.385 2.15-.738 3.241-1.123a50.297 50.297 0 0 0 1.958-.738c1.636-.706 3.24-1.412 4.877-2.118.61-.257 1.188-.578 1.765-.899.482-.256.963-.577 1.476-.77a42.748 42.748 0 0 0 5.648-2.92c.963-.61 2.022-1.092 3.017-1.669a23.774 23.774 0 0 0 1.508-.93c1.54-1.027 3.016-2.087 4.556-3.114 1.509-.994 2.985-2.021 4.332-3.241 1.316-1.251 2.728-2.374 4.044-3.593a61.687 61.687 0 0 0 3.209-3.273 607.426 607.426 0 0 0 6-6.804c1.99-2.246 3.82-4.589 5.424-7.124 1.925-3.08 3.786-6.16 5.68-9.241.545-.899 1.123-1.765 1.668-2.664.867-1.38 1.701-2.792 2.567-4.172a485.441 485.441 0 0 1 4.3-6.77c.867-1.38 1.765-2.76 2.664-4.108 1.22-1.829 2.439-3.626 3.658-5.455.225-.321.481-.61.706-.898.096-.065.257-.193.289-.161l-.16-.032Z"/><path fill="#6CD9D3" d="M305.558 372.655c.385-.578.77-1.09 1.123-1.668 1.476-2.439 2.439-5.039 2.695-7.895.065-.738.097-1.443 0-2.181-.032-.225 0-.482.097-.706.641-1.573 1.797-2.599 3.401-3.113.963-.321 2.375.161 2.984 1.027 1.412 1.99 1.765 4.171 1.284 6.546a11.465 11.465 0 0 1-.963 2.856c-.449.931-.898 1.861-1.315 2.824-.161.353-.417.61-.706.866-1.38 1.22-2.888 2.118-4.685 2.6-.803.224-1.573.192-2.375 0-.674-.161-1.155-.578-1.508-1.156h-.032ZM353.275 83.818c-.481.385-.963.481-1.444.481-.706 0-1.38 0-2.086-.064-.61-.064-1.155-.385-1.733-.642-.77-.353-1.027-.898-1.187-1.668-.353-1.637-.481-3.274-.161-4.942a5.063 5.063 0 0 1 .771-1.926c.802-1.155 1.764-2.118 3.048-2.727.546-.257 1.091-.578 1.669-.867.353-.16.706-.289 1.091-.417.321.77.385 1.54.481 2.279.161 1.444.225 2.887.096 4.364-.16 1.829-.288 3.658-.417 5.487 0 .192-.064.418-.096.61l-.032.032ZM164.941 356.322c.064-.385.128-.674.192-.995.45-2.118.418-4.204-.224-6.258-.449-1.38-1.123-2.599-2.343-3.466-.417-.288-.866-.577-1.38-.673-.224-.033-.417-.193-.641-.29.417-1.187 1.187-2.085 2.085-2.855.706-.61 2.311-.835 3.53-.032.931.609 1.605 1.444 2.118 2.374 1.091 1.926 1.444 4.043 1.22 6.226-.065.706-.321 1.348-.674 1.957-.931 1.541-2.118 2.824-3.53 3.915-.064.032-.128.032-.321.097h-.032ZM288.999 374.742c.097-.321.129-.481.161-.641.385-1.156.609-2.343.545-3.595-.032-.963-.032-1.957-.128-2.92-.128-1.412-.674-2.663-1.476-3.85-.225-.353-.482-.674-.674-.995.032-.803.642-1.156 1.155-1.541.514-.385 1.091-.641 1.733-.609.706.032 1.251.384 1.669.93a5.92 5.92 0 0 1 .898 1.733c.642 1.957.738 3.947.417 5.969-.192 1.219-.481 2.374-1.123 3.433a1.51 1.51 0 0 0-.192.482c-.129.641-.578.93-1.124 1.122-.545.161-1.155.257-1.893.418l.032.064Z"/><path fill="#6CD9D3" d="M293.941 373.3c.129-.353.193-.482.225-.61.545-1.187.802-2.406.995-3.69.256-1.797.096-3.53-.257-5.262a7.063 7.063 0 0 0-.931-2.407c-.513-.899-1.123-1.669-2.15-2.054a6.592 6.592 0 0 1-.93-.481c.032-.417.353-.674.674-.867.609-.449 1.315-.609 2.053-.641.514 0 .931.288 1.252.641.513.546.931 1.155 1.187 1.925.674 1.829.803 3.69.77 5.616 0 1.54-.224 3.049-.449 4.557-.192 1.284-.866 2.246-1.861 3.016-.096.097-.225.129-.546.289l-.032-.032ZM351.799 91.488c-.193-.192-.353-.353-.481-.545-.418-.706-.835-1.413-1.252-2.15-.225-.386-.417-.803-.674-1.156-.353-.545-.706-1.09-.995-1.797.803.097 1.509.257 2.215.257s1.444-.032 2.117-.064c.225.16.193.32.161.513-.289 1.573-.578 3.113-.867 4.685 0 .096-.128.16-.224.29v-.033Z"/><path fill="#190A05" d="m372.593 124.634-.064-.193a1.96 1.96 0 0 0-1.219-1.38c-.353-.16-.674-.289-1.059-.321-.546-.064-1.156-.256-1.765-.449a19.054 19.054 0 0 0-1.797-.482c-.706-.128-1.476-.288-2.311-.288h-.706c-.995 0-1.765-.001-2.503.096-2.567.224-5.583.61-8.536 1.765-.673.257-1.219.642-1.636.963-.129.096-.257.192-.385.257a2.74 2.74 0 0 0-1.123 1.476c-.385 1.091-.738 2.535-.097 4.107.321.802.674 1.444 1.091 1.957.674.835 1.444 1.669 2.343 2.6.738.77 1.604 1.316 2.375 1.797.513.353 1.026.674 1.444 1.027.321.257.641.385.77.449.224.096.417.193.642.257.545.224 1.155.513 1.861.706.674.192 1.444.384 2.31.384h.193c1.187-.032 2.15-.449 2.952-.834 1.476-.706 2.599-1.604 3.498-2.727.257-.321.481-.674.706-1.027.16-.257.321-.514.513-.738.738-.899 1.188-1.862 1.605-2.728l.128-.288c.802-1.669 1.123-3.435.995-5.328 0-.321-.096-.641-.193-.994l-.032-.064Z"/></g><defs><clipPath id="a"><path fill="#fff" d="M0 0h384.6v376.92H0z"/></clipPath></defs></svg>